<?xml version="1.0" encoding="utf-8"?><svg xmlns="http://www.w3.org/2000/svg" xmlns:xlink="http://www.w3.org/1999/xlink"><symbol viewBox="0 0 43 41" id="Vector" xmlns="http://www.w3.org/2000/svg"><path d="M25.034.477l-1.12.257s-8.863 1.903-12.73 8.603c-4.408 7.638.536 14.941.536 14.941l1.15 1.688 1.445-1.454s1.275-1.34 3.67-2.154c2.396-.814 5.736-1.084 10.093 1.432 6.488 3.747 9.018 9.823 9.761 11.78-2.02.91-9.308 3.896-16.434-.22-3.247-1.874-5.016-3.829-6.004-5.152 2.718-.373 5.138-.074 7.186.477 4.32 1.161 6.851 3.474 6.851 3.474l2.253-2.43s-.783-.747-2.21-1.64a22.752 22.752 0 00-6.051-2.65C15.401 26.214 4.394 25.494 0 38.013l4.395.031c1.59-4.485 3.902-6.362 6.934-6.955.983 1.5 3.972 4.59 8.408 7.151 10.032 5.794 21.182-.23 21.182-.23l1.21-.626-.394-1.312s-3.038-10.003-11.99-15.173a17.888 17.888 0 00-4.57-1.856c.941-1.143 1.9-2.569 2.568-4.66 2.241-6.97-2.034-12.975-2.034-12.975l-.675-.931zM23.469 4.45c.761 1.32 2.446 4.589 1.07 8.866-.69 2.14-1.697 3.544-2.53 4.381-.83.837-1.327 1.04-1.327 1.04-1.34.076-2.732.108-3.786.463-.254.086-.49.206-.722.305.407-.901.84-1.796 1.323-2.608a44.54 44.54 0 012.417-3.66l-2.632-2.063s-1.313 1.71-2.67 3.997a34.403 34.403 0 00-1.714 3.285c-.498-1.884-.548-4.412 1.198-7.436 2.427-4.207 7.65-6.03 9.373-6.57z"/></symbol><symbol viewBox="0 0 40 40" id="arms" xmlns="http://www.w3.org/2000/svg"><path d="M18.12 1.73c6.76 3.153 8.323 7.086 8.656 9.15.376 2.356-.455 4.137-1.283 4.944-.838.82-1.722 1.234-2.628 1.234-.261 0-.506-.035-.733-.093L17.161 2.48a.731.731 0 01.267-.67l.692-.08zm0-.002a.667.667 0 00-.692.082l.692-.082zm0 0l-.212.453c6.62 3.09 8.069 6.888 8.374 8.776.353 2.208-.434 3.822-1.138 4.508h-.001c-.772.757-1.537 1.092-2.278 1.092-.219 0-.437-.03-.648-.088.674-4.185.072-7.198-1.108-10.28a1.179 1.179 0 00-1.55-.689l-.007.003a1.23 1.23 0 00-.654 1.574c1.125 2.94 1.634 5.64.863 9.664-.462.14-.92.258-1.355.258-1.136 0-2.067-.367-2.765-1.005-.7-.64-1.196-1.58-1.4-2.775-.528-3.094.824-5.244 2-7.092l.022-.035c.384-.604.766-1.206 1.032-1.79.273-.598.449-1.23.361-1.888a.231.231 0 01.08-.21l-.308-.394.692-.082zm0 0l-.211.454a.174.174 0 00-.09-.015.172.172 0 00-.082.036l-.309-.393.692-.082zm3.439 15.574a4.015 4.015 0 01-.13-.055l-.105-.045c-.091.05-.186.097-.283.141l.518-.04zm0 0l-.399-.582-.043.234-.061.105.037.021-.052.263.518-.04zm0 0a34.998 34.998 0 01-1.014 3.873l1.014-3.873zm0 0l-1.014 3.873 1.014-3.873zm-.518.041a34.778 34.778 0 01-.972 3.68l.972-3.68zm0 0a5.687 5.687 0 01-.415.17l.415-.17zm-.972 3.68l.557-3.51-.557 3.51zm0 0c-.032.098-.112.143-.178.143a.127.127 0 01-.044-.009l-.009-.003c-.085-.03-.163-.146-.12-.284.356-1.1.658-2.217.904-3.347l-.553 3.5zm0 0l.553-3.5-.553 3.5zm.557-3.51l-.002.01h-.002l.004-.01zm0 0l-.004.01.004-.01zm-.081 3.662a.694.694 0 01-.654.491.623.623 0 01-.214-.04c-.362-.123-.555-.53-.436-.907l1.304.456zM3.261 25l.401-.298-.012-.017-.013-.015-.133-.15c-.379-.428-.678-.767-.908-1.245-.25-.52-.429-1.24-.429-2.44v-10c0-.718.235-1.205.56-1.514.33-.314.798-.487 1.331-.487.533 0 1 .173 1.331.487.325.31.56.796.56 1.513v7.135a1.446 1.446 0 00-.095.055 2 2 0 00-.464.422 3.19 3.19 0 00-.626 1.347c-.237 1.107.015 2.523 1.308 3.89l3.496 3.903.003.004a1.113 1.113 0 001.663-.002 1.265 1.265 0 00-.003-1.685l-3.818-4.242-.003-.003c-.532-.58-.535-1.515.013-2.115h.001c.072-.08.315-.302.652-.363.293-.053.775-.006 1.41.656l3.815 4.255.005.005.005.005c1.635 1.72 3 3.845 3 6.732V37.5c0 .096 0 .16-.007.218a.245.245 0 01-.017.072.664.664 0 01-.272.044H9.638a.902.902 0 01-.124-.007.366.366 0 01-.11-.03.076.076 0 01-.036-.029c-.005-.008-.027-.048-.027-.15v-5.282l-.097-.132c-.412-.56-1.809-2.436-3.1-4.17l-1.726-2.318-.55-.738-.152-.205-.04-.053-.01-.014-.003-.003-.402.297zm30.79-7.03v-7.136c0-.717.235-1.204.56-1.513.33-.314.798-.487 1.331-.487.533 0 1 .173 1.331.487.325.31.56.796.56 1.513v10c0 1.2-.178 1.92-.428 2.441-.23.478-.53.817-.908 1.245l-.133.15-.013.015-.012.017.4.298-.4-.298h-.001l-.003.004-.01.014-.04.053-.152.205-.55.738-1.726 2.317a1679.026 1679.026 0 00-3.1 4.17l-.097.133v5.281c0 .103-.022.143-.028.151a.073.073 0 01-.034.028.366.366 0 01-.111.03.901.901 0 01-.124.007h-6.377a.664.664 0 01-.272-.043.251.251 0 01-.017-.072 1.745 1.745 0 01-.008-.218v-6.667c0-2.887 1.365-5.013 3-6.732l.006-.005.005-.005 3.815-4.255c.635-.662 1.117-.709 1.41-.656.337.06.58.28.656.363.545.6.542 1.535.012 2.116l-.002.002-3.821 4.243h-.002a1.265 1.265 0 000 1.684 1.114 1.114 0 001.662.002l.003-.004 3.495-3.904c1.294-1.366 1.545-2.782 1.309-3.889a3.19 3.19 0 00-.627-1.346 2 2 0 00-.464-.423 1.378 1.378 0 00-.095-.055z"/></symbol><symbol viewBox="0 0 104 80" id="commas" xmlns="http://www.w3.org/2000/svg"><path d="M63.466 32.957l-.005.008-.142.258c-2.688 4.92-4.041 10.397-4.041 16.462 0 8.863 1.881 15.882 5.512 21.18 3.483 4.99 9.335 7.635 17.973 7.635 5.392 0 9.431-1.657 12.32-4.833l.002-.003-31.62-40.707zm0 0c2.848-5.202 6.301-9.817 10.36-13.853 4.193-4.164 8.632-7.69 13.317-10.582a571.411 571.411 0 0110.742-6.498l3.992 6.3c-4.265 2.35-7.785 4.427-10.55 6.233-3.135 1.947-6.292 4.537-9.473 7.75l-.001.001-.001.002M63.466 32.956l18.386-10.648m0 0c-3.114 3.153-5.51 6.44-7.156 9.87l-.003.005m7.159-9.874l-7.159 9.874m0 0l-.003.007m.003-.008l-.003.008m0 0l-.003.007m.003-.007l-.004.008m0 0c-1.546 3.347-2.615 7.655-3.25 12.869l-.137 1.12-.068.561m3.455-14.55l-3.455 14.55m0 0h.565m-.565 0h.565m0 0h8.624c6.228 0 10.893 1.473 14.184 4.233v.001M71.797 46.75l22.808 4.234m0 0l.012.01m-.011-.01l.01.01m0 0l.01.007m-.01-.007l.01.007m0 0l.012.01h.001m-.013-.01l.013.01m0 0c3.309 2.611 5.051 6.516 5.051 11.984m-5.05-11.983l5.05 11.983m0 0c0 3.695-1.473 7.241-4.602 10.668l4.602-10.668zM24.075 22.308l-.002.003c-3.014 3.058-5.356 6.296-6.999 9.72-1.656 3.449-2.78 7.812-3.416 13.037l-.136 1.12-.069.561h9.19c6.227 0 10.892 1.473 14.183 4.233l.01.01.006.004.005.004.012.01h.002c3.308 2.611 5.05 6.516 5.05 11.984 0 3.696-1.474 7.243-4.604 10.67l-.002.003a.059.059 0 01-.004.003c-2.888 3.174-6.926 4.83-12.316 4.83-8.637 0-14.49-2.646-17.973-7.635C3.382 65.567 1.5 58.548 1.5 49.685c0-6.065 1.353-11.542 4.04-16.462h.001l.143-.258.003-.007.001-.001c2.848-5.202 6.302-9.817 10.36-13.853 4.193-4.164 8.632-7.69 13.317-10.582a571.335 571.335 0 0110.743-6.498l3.991 6.3c-4.265 2.35-7.785 4.427-10.55 6.233-3.136 1.947-6.292 4.538-9.474 7.751z"/></symbol><symbol viewBox="0 0 24 24" id="facebook" xmlns="http://www.w3.org/2000/svg"><path d="M12 0C5.4 0 0 5.41 0 12.072 0 18.096 4.392 23.096 10.128 24v-8.434H7.08v-3.494h3.048V9.41c0-3.024 1.788-4.687 4.536-4.687 1.308 0 2.676.229 2.676.229v2.976h-1.512c-1.488 0-1.956.927-1.956 1.88v2.264h3.336l-.54 3.494h-2.796V24a11.988 11.988 0 007.26-4.084A12.077 12.077 0 0024 12.072C24 5.41 18.6 0 12 0z" fill-opacity=".5"/></symbol><symbol viewBox="0 0 30 44" id="logo" xmlns="http://www.w3.org/2000/svg"><path d="M14.667 2.068L1.379 22l13.288 19.932L27.955 22 14.667 2.068zm0-2.068l14.666 22-14.666 22L0 22 14.667 0z"/><path d="M10.677 16.852l-1.31 1.76-.547 5.573v-6.13l1.857-1.203zm3.443-5.368l-1.702 1.79-.577 2.713V13.36l1.31-1.114v.058l.968-.821z"/><path d="M6.404 24.185H8.82l-2.21.411-.94 1.804.733-2.215zm6.405-8.829v-1.613l1.858-1.438v1.804l-1.858 1.247zm.753 10.897h-.577v-1.818l.577-.059v1.877zm0-3.945l-.577.132v-1.819l.577-.205v1.892zm0-3.696l-.577.264v-1.833l.577-.323v1.892zm-1.682 7.641h-.47v-1.642l.47-.059v1.701zm0-3.549l-.47.103v-1.643l.47-.161v1.701zm0-3.329l-.47.205v-1.643l.47-.264v1.702zm-1.447 6.878h-.391v-1.496l.39-.044v1.54zm0-3.212l-.391.088v-1.496l.39-.132v1.54zm0-3.021l-.391.176V18.7l.39-.22v1.54z"/><path d="M14.12 11.484l.547-.528-1.516 1.29V9.974l1.516-2.2 1.515 2.2v2.274l1.31 1.114v2.64l3.032 2.039v6.13h2.405l.733 2.23h-8.995V14.109l1.857 1.247v-1.613l-1.857-1.438V11.03l-.548.455zm.068-1.144l-.46.425v.88l.46-.396v-.909zm2.16 6.703l-.586-.323v1.892l.586.264v-1.833zm0 3.578l-.586-.205v1.892l.586.132v-1.819zm0 3.814l-.586-.059v1.877h.586v-1.818zm2.553 1.818h.39v-1.496l-.39-.044v1.54zm0-3.212l.39.088v-1.496l-.39-.132v1.54zm0-3.021l.39.176V18.7l-.39-.22v1.54zm-1.448 6.233h.48v-1.642l-.48-.059v1.701zm0-3.549l.48.117V21.18l-.48-.162v1.687zm0-3.33l.48.22v-1.642l-.48-.264v1.687zm-2.385-8.11l.46.396v-.88l-.46-.425v.909z"/><path d="M14.12 11.484l-.969.821v-.058l1.516-1.276-.548.513zm11.351 14.843l-21.56.073 10.756 16.133L25.47 26.327z"/></symbol></svg>