<?xml version="1.0" encoding="utf-8"?><svg xmlns="http://www.w3.org/2000/svg" xmlns:xlink="http://www.w3.org/1999/xlink"><symbol fill="none" viewBox="0 0 48 48" id="Facades" xmlns="http://www.w3.org/2000/svg"><g clip-path="url(#aclip0)"><path d="M46.967 25.747C50.602 12.625 44.314 0 33.295 0c-6.097 0-8.7 3.504-15.397 11.663C11.2 19.822 1.65 8.478 0 25.747 1.386 41.66 18.652 56.064 26.668 42.774c7.298-12.1 16.665-3.906 20.3-17.027h-.001z" fill="#E6F1F9"/><mask id="aa" maskUnits="userSpaceOnUse" x="12" y="14" width="24" height="20"><path d="M35 14H13a1 1 0 00-1 1v18a1 1 0 001 1h22a1 1 0 001-1V15a1 1 0 00-1-1z" fill="#fff"/></mask><g mask="url(#aa)"><path d="M35 14H13a1 1 0 00-1 1v18a1 1 0 001 1h22a1 1 0 001-1V15a1 1 0 00-1-1z" stroke="#036FC7" stroke-width="4"/><path d="M12 20h16v2H12v-2zm0 6h7v2h-7v-2z" fill="#036FC7"/><path d="M18 15h2v6h-2v-6zm5 6h2v5h-2v-5zm5-6h2v6h-2v-6z" fill="#036FC7"/><path d="M35 32V18c-7 0-5.5 3.5-7 6s-4.36 1.472-7 2c-2.5.5-2.5 5-2.5 7H34a1 1 0 001-1z" stroke="#036FC7" stroke-width="2"/></g></g><defs><clipPath id="aclip0"><path fill="#fff" d="M0 0h48v48H0z"/></clipPath></defs></symbol><symbol fill="none" viewBox="0 0 48 48" id="Fit-out" xmlns="http://www.w3.org/2000/svg"><g clip-path="url(#bclip0)"><path d="M1.033 25.747C-2.602 12.625 3.686 0 14.705 0c6.097 0 8.7 3.504 15.397 11.663C36.8 19.822 46.35 8.478 48 25.747 46.614 41.66 29.348 56.064 21.332 42.774c-7.298-12.1-16.665-3.906-20.3-17.027h.001z" fill="#E6F1F9"/><path d="M15 13c-.6 0-1 .4-1 1v6c0 .6.4 1 1 1h15c.6 0 1-.4 1-1v-2h1v5h-8c-1.093 0-2 .907-2 2v2c-.6 0-1 .4-1 1v6c0 .6.4 1 1 1h2c.6 0 1-.4 1-1v-6c0-.6-.4-1-1-1v-2h8c1.093 0 2-.907 2-2v-5c0-1.093-.907-2-2-2h-1v-2c0-.6-.4-1-1-1H15zm1 2h13v4H16v-4z" fill="#036FC7"/></g><defs><clipPath id="bclip0"><path fill="#fff" d="M0 0h48v48H0z"/></clipPath></defs></symbol><symbol fill="none" viewBox="0 0 48 48" id="Formwork" xmlns="http://www.w3.org/2000/svg"><g clip-path="url(#cclip0)"><path d="M33.295 48c11.019 0 17.307-12.625 13.672-25.747-3.634-13.122-13.001-4.927-20.3-17.027C18.654-8.064 1.387 6.339 0 22.253.53 30.835 7.93 48 33.295 48z" fill="#E6F1F9"/><path d="M12.75 35.25V25.162c1.103-.587 3.46-1.503 6.16-1.503 1.716 0 3.15 1.008 4.883 2.225l.003.002c1.656 1.164 3.57 2.5 6.022 2.5 2.425 0 4.246-.864 5.432-1.79v8.654h-22.5z" stroke="#036FC7" stroke-width="1.5"/><path d="M17 15a1 1 0 012 0v8.16L17 24v-9zm6-2a1 1 0 012 0v13l-2-.994V13zm6 2a1 1 0 012 0v13h-2V15z" fill="#036FC7"/><path d="M13 17a1 1 0 011-1h20a1 1 0 010 2H14a1 1 0 01-1-1zm0 4a1 1 0 011-1h20a1 1 0 010 2H14a1 1 0 01-1-1zm2 6h2v2h-2v-2zm1 4h2v2h-2v-2zm5-2h2v2h-2v-2zm6 2h2v2h-2v-2zm4-1h2v2h-2v-2z" fill="#036FC7"/></g><defs><clipPath id="cclip0"><path fill="#fff" d="M0 0h48v48H0z"/></clipPath></defs></symbol><symbol fill="none" viewBox="0 0 48 48" id="MEP" xmlns="http://www.w3.org/2000/svg"><g clip-path="url(#dclip0)"><path d="M1.033 25.747C-2.602 12.625 3.686 0 14.705 0c6.097 0 8.7 3.504 15.397 11.663C36.8 19.822 46.35 8.478 48 25.747 46.614 41.66 29.348 56.064 21.332 42.774c-7.298-12.1-16.665-3.906-20.3-17.027h.001z" fill="#E6F1F9"/><path d="M12 12v8h2v-1h6a1 1 0 011 1v10c0 2.75 2.25 5 5 5h8v1h2v-8h-2v1h-6a1 1 0 01-1-1V18c0-2.75-2.25-5-5-5h-8v-1h-2zm2 3h8c1.669 0 3 1.331 3 3v5h-2v-4c0-1.093-.907-2-2-2h-7v-2zm9 10h2v4c0 1.093.907 2 2 2h7v2h-8c-1.669 0-3-1.331-3-3v-5z" fill="#036FC7"/><path d="M20 23h8v3h-8v-3z" fill="#036FC7"/></g><defs><clipPath id="dclip0"><path fill="#fff" d="M0 0h48v48H0z"/></clipPath></defs></symbol><symbol fill="none" viewBox="0 0 48 48" id="Precasts" xmlns="http://www.w3.org/2000/svg"><g clip-path="url(#eclip0)"><path d="M46.967 25.747C50.602 12.625 44.314 0 33.295 0c-6.097 0-8.7 3.504-15.397 11.663C11.2 19.822 1.65 8.478 0 25.747 1.386 41.66 18.652 56.064 26.668 42.774c7.298-12.1 16.665-3.906 20.3-17.027h-.001z" fill="#E6F1F9"/><path fill-rule="evenodd" clip-rule="evenodd" d="M12 14h2v7h7v-7h2v8a1 1 0 01-1 1h-9a1 1 0 01-1-1v-8zm13 0h2v7h7v-7h2v8a1 1 0 01-1 1h-9a1 1 0 01-1-1v-8zM12 25h2v7h7v-7h2v8a1 1 0 01-1 1h-9a1 1 0 01-1-1v-8zm13 0h2v7h7v-7h2v8a1 1 0 01-1 1h-9a1 1 0 01-1-1v-8z" fill="#036FC7"/></g><defs><clipPath id="eclip0"><path fill="#fff" d="M0 0h48v48H0z"/></clipPath></defs></symbol><symbol fill="none" viewBox="0 0 48 48" id="Scaffolding" xmlns="http://www.w3.org/2000/svg"><g clip-path="url(#fclip0)"><path d="M46.967 25.747C50.602 12.625 44.314 0 33.295 0c-6.097 0-8.7 3.504-15.397 11.663C11.2 19.822 1.65 8.478 0 25.747 1.386 41.66 18.652 56.064 26.668 42.774c7.298-12.1 16.665-3.906 20.3-17.027h-.001z" fill="#E6F1F9"/><path d="M13 12h2v23h-2V12zm20 0h2v23h-2V12z" fill="#036FC7"/><path d="M12 34h4v2h-4v-2zm20 0h4v2h-4v-2zM13 14h22v2H13v-2zm0 15h21v2H13v-2z" fill="#036FC7"/><path d="M14 16l20 13m-20 0l20-13-20 13z" stroke="#036FC7" stroke-width="2" stroke-linejoin="bevel"/></g><defs><clipPath id="fclip0"><path fill="#fff" d="M0 0h48v48H0z"/></clipPath></defs></symbol><symbol fill="none" viewBox="0 0 48 48" id="car" xmlns="http://www.w3.org/2000/svg"><g clip-path="url(#gclip0)"><path d="M46.967 25.747C50.602 12.625 44.314 0 33.295 0c-6.097 0-8.7 3.504-15.397 11.663C11.2 19.822 1.65 8.478 0 25.747 1.386 41.66 18.652 56.064 26.668 42.774c7.298-12.1 16.665-3.906 20.3-17.027h-.001z" fill="#E6F1F9"/><path d="M27.923 19c-.555 0-.923.368-.923.923V29.5c0 .462.368.923.923.923.184-1.568 1.415-2.923 3.078-2.923 1.662 0 2.816 1.338 3 3h1c.555 0 1-.406 1-.962v-4.615c0-.83-.75-1.846-.75-1.846l-2.02-3.115c-.462-.556-.74-.924-1.385-.924L27.923 19zm1.078 2h3l2.066 3.087c.184.277.433.635.433.913H29l.001-4zm-13 8c-1.173 0-2 .828-2 2 0 1.172.828 2 2 2 1.172 0 2-.828 2-2 0-1.172-.83-2-2-2zm15 0c-1.172 0-2 .828-2 2 0 1.172.828 2 2 2 1.172 0 2-.828 2-2 0-1.172-.829-2-2-2zM20 31c0-1.172.828-2 2-2 1.172 0 2 .828 2 2 0 1.172-.828 2-2 2-1.171 0-2-.828-2-2zm-6.447-10A2 2 0 0113 18.601l1.114-2.39a2 2 0 012.193-1.118l4.055.786c.16.031.316.081.464.15l3.693 1.722a1.44 1.44 0 01.696 1.914l-2.492 5.54a1.44 1.44 0 01-1.914.696l-3.692-1.722a1.998 1.998 0 01-.415-.259L13.553 21z" fill="#036FC7"/><path d="M12.5 27c-.555 0-.5.445-.5 1v1.5c0 .555-.055.962.5.962h.5V28h12v2.462l.215-.039c.555 0 .785-.368.785-.923V28c0-.555-.445-1-1-1H12.5z" fill="#036FC7"/></g><defs><clipPath id="gclip0"><path fill="#fff" d="M0 0h48v48H0z"/></clipPath></defs></symbol><symbol fill="none" viewBox="0 0 48 48" id="cloud" xmlns="http://www.w3.org/2000/svg"><g clip-path="url(#hclip0)"><path d="M46.967 25.747C50.602 12.625 44.314 0 33.295 0c-6.097 0-8.7 3.504-15.397 11.663C11.2 19.822 1.65 8.478 0 25.747 1.386 41.66 18.652 56.064 26.668 42.774c7.298-12.1 16.665-3.906 20.3-17.027h-.001z" fill="#E2F9C3"/><path fill-rule="evenodd" clip-rule="evenodd" d="M34 15a1 1 0 11-2 0 1 1 0 012 0zm1 0a2 2 0 11-4 0 2 2 0 014 0zm-20 4.5a1.5 1.5 0 100-3 1.5 1.5 0 000 3zm0 1.5a3 3 0 100-6 3 3 0 000 6zm11.5-3c-2.181 0-3.56.77-4.397 1.707-.296.33-.51.667-.667.97-.909-.266-2.21-.363-3.49.49-1.555 1.037-2.187 2.467-2.378 3.605a5.615 5.615 0 00-1.927 1.124C12.723 26.722 12 27.97 12 29.691c0 2.008.827 3.403 2.08 4.253C15.271 34.753 16.746 35 18 35h12.5c1.14 0 2.482-.424 3.554-1.264 1.099-.861 1.946-2.19 1.946-3.957 0-1.664-.598-2.99-1.567-3.897a4.885 4.885 0 00-2.187-1.17c.154-1.26-.151-2.647-.813-3.806C30.516 19.303 28.838 18 26.5 18zm-3.541 4.284l.018-.064c.065-.234.2-.713.617-1.18.428-.48 1.248-1.04 2.906-1.04 1.5 0 2.572.807 3.196 1.899.65 1.136.736 2.446.384 3.271l-.594 1.392H31c.774 0 1.522.27 2.067.78.53.497.933 1.278.933 2.437 0 1.058-.486 1.84-1.18 2.382-.719.564-1.627.839-2.32.839H18c-1.039 0-2.063-.213-2.798-.711C14.528 31.83 14 31.072 14 29.69c0-1.1.44-1.823.979-2.308.567-.511 1.259-.765 1.682-.833l.839-.137v-.85c0-.688.294-1.89 1.555-2.73.99-.661 2.087-.19 2.414.014l1.116.7.374-1.262zM18.72 27.64c0-1.73.927-2.796 2.43-2.796 1.228 0 2.167.838 2.246 1.996h-1.054c-.104-.611-.574-1.014-1.192-1.014-.814 0-1.32.694-1.32 1.815 0 1.122.506 1.818 1.324 1.818.62 0 1.087-.375 1.191-.961H23.4c-.09 1.15-1 1.942-2.25 1.942-1.5 0-2.43-1.066-2.43-2.8zm5.28 0c0-1.727.938-2.796 2.404-2.796 1.473 0 2.396 1.073 2.396 2.796 0 1.726-.92 2.8-2.396 2.8-1.48 0-2.404-1.074-2.404-2.8zm3.735 0c0-1.114-.518-1.818-1.331-1.818-.81 0-1.335.704-1.335 1.818 0 1.11.515 1.822 1.335 1.822.813 0 1.331-.711 1.331-1.822zm1.545 1.656c0-.658.476-1.091 1.2-1.091.701 0 1.151.378 1.151.964 0 .403-.205.73-.768 1.17l-.367.33v.062h1.184v.726h-2.339v-.644l.892-.815c.457-.406.566-.549.566-.743 0-.198-.148-.334-.357-.334-.222 0-.373.15-.373.37v.021h-.789v-.016z" fill="#3A8241"/></g><defs><clipPath id="hclip0"><path fill="#fff" d="M0 0h48v48H0z"/></clipPath></defs></symbol><symbol fill="none" viewBox="0 0 104 80" id="commas" xmlns="http://www.w3.org/2000/svg"><path d="M63.466 32.957h0l-.005.008-.142.258h0c-2.688 4.92-4.041 10.397-4.041 16.462 0 8.863 1.881 15.882 5.512 21.18 3.483 4.99 9.335 7.635 17.973 7.635 5.392 0 9.431-1.657 12.32-4.833l.002-.003-31.62-40.707zm0 0c2.848-5.202 6.301-9.817 10.36-13.853 4.193-4.164 8.632-7.69 13.317-10.582a571.411 571.411 0 0110.742-6.498l3.992 6.3c-4.265 2.35-7.785 4.427-10.55 6.233-3.135 1.947-6.292 4.537-9.473 7.75l-.001.001-.001.002M63.466 32.956l18.386-10.648m0 0c-3.114 3.153-5.51 6.44-7.156 9.87l-.003.005h0m7.159-9.874l-7.159 9.874m0 0l-.003.007m.003-.008l-.003.008m0 0l-.003.007h0m.003-.007l-.004.008m0 0c-1.546 3.347-2.615 7.655-3.25 12.869l-.137 1.12-.068.561m3.455-14.55l-3.455 14.55m0 0h.565m-.565 0h.565m0 0h8.624c6.228 0 10.893 1.473 14.184 4.233v.001M71.797 46.75l22.808 4.234m0 0l.012.01h0m-.011-.01l.01.01m0 0l.01.007m-.01-.007l.01.007m0 0l.012.01h.001m-.013-.01l.013.01m0 0c3.309 2.611 5.051 6.516 5.051 11.984m-5.05-11.983l5.05 11.983m0 0c0 3.695-1.473 7.241-4.602 10.668l4.602-10.668zM24.075 22.308h0l-.002.003c-3.014 3.058-5.356 6.296-6.999 9.72-1.656 3.449-2.78 7.812-3.416 13.037l-.136 1.12-.069.561h9.19c6.227 0 10.892 1.473 14.183 4.233l.01.01.006.004.005.004.012.01h.002c3.308 2.611 5.05 6.516 5.05 11.984 0 3.696-1.474 7.243-4.604 10.67h0l-.002.003a.059.059 0 01-.004.003c-2.888 3.174-6.926 4.83-12.316 4.83-8.637 0-14.49-2.646-17.973-7.635C3.382 65.567 1.5 58.548 1.5 49.685c0-6.065 1.353-11.542 4.04-16.462h.001l.143-.258.003-.007.001-.001c2.848-5.202 6.302-9.817 10.36-13.853 4.193-4.164 8.632-7.69 13.317-10.582a571.335 571.335 0 0110.743-6.498l3.991 6.3c-4.265 2.35-7.785 4.427-10.55 6.233-3.136 1.947-6.292 4.538-9.474 7.751z" stroke="#DADEDF"/></symbol><symbol fill="none" viewBox="0 0 48 48" id="compliance" xmlns="http://www.w3.org/2000/svg"><g clip-path="url(#jclip0)"><path d="M46.967 25.747C50.602 12.625 44.314 0 33.295 0c-6.097 0-8.7 3.504-15.397 11.663C11.2 19.822 1.65 8.478 0 25.747 1.386 41.66 18.652 56.064 26.668 42.774c7.298-12.1 16.665-3.906 20.3-17.027h-.001z" fill="#FFDD76"/><path d="M21.65 14.559h.525l.199-.485c.33-.806.91-1.293 1.626-1.293.716 0 1.296.487 1.626 1.293l.199.485H32c.257 0 .495.08.692.215h-4.018v3.556h-9.347v-3.556h-4.019c.197-.136.435-.215.692-.215h5.65zm11.313.997v-.525c.16.206.256.465.256.747V34c0 .28-.096.54-.256.747V15.556zm-.781 19.448h.51a1.22 1.22 0 01-.692.215H16a1.22 1.22 0 01-.692-.215h16.874zm-17.145-.782v.525A1.214 1.214 0 0114.78 34V15.778c0-.282.096-.54.256-.747v.525l.001 18.666zm13.38-18.666v-.782H25.69v-.107c0-.95-.762-1.67-1.69-1.67-.928 0-1.69.72-1.69 1.67v.107h-2.728v3.34h8.836v-.781l-.001-1.777zm-5.872 13.523l.546.534.546-.534 5.175-5.06.168.165-5.89 5.758-3.16-3.091.167-.165 2.448 2.393z" fill="#63522B" stroke="#63522B" stroke-width="1.563"/></g><defs><clipPath id="jclip0"><path fill="#fff" d="M0 0h48v48H0z"/></clipPath></defs></symbol><symbol fill="none" viewBox="0 0 48 48" id="engaged" xmlns="http://www.w3.org/2000/svg"><g clip-path="url(#kclip0)"><path d="M33.295 48c11.019 0 17.307-12.625 13.672-25.747-3.634-13.122-13.001-4.927-20.3-17.027C18.654-8.064 1.387 6.339 0 22.253.53 30.835 7.93 48 33.295 48z" fill="#FFDD76"/><mask id="ka" maskUnits="userSpaceOnUse" x="12" y="14" width="24" height="20"><path d="M32 16v7l4-3.5-4-3.5zm-13.25-2a.75.75 0 00-.75.75v18.5a.75.75 0 00.75.75h10.5a.75.75 0 00.75-.75v-18.5a.75.75 0 00-.75-.75h-10.5zM12 19v1.5h1.5V19H12zm3 0v1.5h1.5V19H15zm4.5-3.5h9v17h-9v-17zm1.75 1.5a.75.75 0 00-.729 1.046.751.751 0 00.729.454h5.5a.75.75 0 00.729-1.046.751.751 0 00-.729-.454h-5.5zM16 24l-4 3.5 4 3.5v-7zm15.5 3v1.5H33V27h-1.5zm3 0v1.5H36V27h-1.5z" fill="#fff"/></mask><g mask="url(#ka)"><path d="M32 16v7l4-3.5-4-3.5zm-13.25-2a.75.75 0 00-.75.75v18.5a.75.75 0 00.75.75h10.5a.75.75 0 00.75-.75v-18.5a.75.75 0 00-.75-.75h-10.5zM12 19v1.5h1.5V19H12zm3 0v1.5h1.5V19H15zm4.5-3.5h9v17h-9v-17zm1.75 1.5a.75.75 0 00-.729 1.046.751.751 0 00.729.454h5.5a.75.75 0 00.729-1.046.751.751 0 00-.729-.454h-5.5zM16 24l-4 3.5 4 3.5v-7zm15.5 3v1.5H33V27h-1.5zm3 0v1.5H36V27h-1.5z" fill="#63522B" stroke="#63522B" stroke-width="6.25"/></g></g><defs><clipPath id="kclip0"><path fill="#fff" d="M0 0h48v48H0z"/></clipPath></defs></symbol><symbol fill="none" viewBox="0 0 48 48" id="fred" xmlns="http://www.w3.org/2000/svg"><g clip-path="url(#lclip0)"><path d="M46.967 22.253C50.602 35.375 44.314 48 33.295 48c-6.097 0-14.795-1-18.397-9.663C11.427 29.99.5 37.5 0 20.253 0 6 20.876-7.664 26.668 5.226c5.792 12.89 16.665 3.905 20.3 17.027h-.001z" fill="#E8F3FE"/><path d="M21.338 12s-1.683-.04-2.632 1.016c-.948 1.055-.803 2.81-.803 2.81s1.683.042 2.632-1.015c.949-1.057.803-2.81.803-2.81zm5.322 0s-.145 1.755.803 2.811c.948 1.056 2.63 1.014 2.63 1.014s.147-1.753-.801-2.81C28.343 11.96 26.66 12 26.66 12zm-11.197 1.193s-1.114 1.32-.951 2.76c.163 1.437 1.54 2.45 1.54 2.45l.007-.01c.29.251 1.36 1.094 2.538.972 1.379-.143 2.373-1.565 2.373-1.565s-1.242-1.188-2.62-1.045c-.786.082-1.438.575-1.86.987.29-.52.604-1.288.513-2.1-.163-1.439-1.54-2.448-1.54-2.448zm17.073 0s-1.377 1.012-1.54 2.45c-.093.813.22 1.578.513 2.1-.423-.414-1.075-.906-1.86-.988-1.378-.143-2.621 1.047-2.621 1.047s.995 1.422 2.373 1.565c1.177.122 2.248-.724 2.538-.974l.007.01s1.377-1.013 1.54-2.45c.164-1.44-.95-2.76-.95-2.76zm-19.768 5.421s-.682 1.61-.114 2.93c.568 1.322 2.172 1.854 2.172 1.854l.007-.018c.36.115 1.658.463 2.7-.123 1.218-.687 1.612-2.398 1.612-2.398s-1.583-.598-2.803.09c-.59.331-.983.902-1.235 1.404.09-.556.108-1.25-.165-1.884-.567-1.32-2.174-1.855-2.174-1.855zm22.462 0s-1.606.534-2.174 1.855c-.272.632-.254 1.328-.165 1.884-.252-.502-.645-1.073-1.235-1.405-1.22-.687-2.803-.089-2.803-.089s.394 1.712 1.613 2.4c1.041.585 2.339.238 2.7.123l.006.018s1.605-.534 2.172-1.855c.569-1.322-.114-2.93-.114-2.93zm-16.694 5.34s-1.644.371-2.331 1.63c-.331.606-.376 1.306-.337 1.87-.203-.522-.538-1.123-1.087-1.512-1.148-.812-2.781-.384-2.781-.384s.226 1.744 1.374 2.555c1.147.813 2.782.386 2.782.386l-.003-.016c.36-.1 1.643-.522 2.23-1.6.686-1.258.153-2.928.153-2.928zm10.926 0s-.532 1.671.154 2.93c.588 1.077 1.871 1.5 2.231 1.6l-.003.015s1.635.428 2.782-.384C35.774 27.303 36 25.558 36 25.558s-1.636-.428-2.783.384c-.548.39-.883.99-1.085 1.513.04-.565-.006-1.265-.337-1.872-.687-1.258-2.333-1.628-2.333-1.628zm-9.604 3.43s-1.537.718-1.96 2.096c-.24.786-.068 1.606.125 2.175-.341-.487-.886-1.093-1.636-1.328-1.327-.416-2.763.503-2.763.503s.714 1.593 2.041 2.01c1.155.361 2.335-.256 2.637-.43.591.643 1.298 1.075 2.054 1.368-.259.21-.488.461-.652.786a.945.945 0 00-.057.107l-.009.016a.964.964 0 00.18 1.041.86.86 0 001.109.124.918.918 0 00.328-.396c.085-.197.32-.39.914-.566.471-.14 1.126-.235 1.83-.333.704.098 1.359.193 1.83.333.593.176.829.37.914.566h.002c.07.162.184.3.327.396a.86.86 0 001.108-.124.95.95 0 00.179-1.04h.001l-.008-.017a.947.947 0 00-.06-.113 2.403 2.403 0 00-.65-.78c.756-.293 1.463-.725 2.054-1.369.3.174 1.48.794 2.637.432 1.327-.416 2.043-2.01 2.043-2.01s-1.436-.918-2.763-.502c-.75.235-1.297.841-1.638 1.328.193-.57.366-1.392.125-2.176-.423-1.38-1.96-2.097-1.96-2.097s-.85 1.52-.427 2.898c.12.388.328.718.564 1l-.002.001c-.905.824-2.4 1.135-3.976 1.355l-.3.042-.3-.042c-1.576-.22-3.072-.533-3.978-1.357.236-.282.447-.612.566-1 .423-1.379-.429-2.897-.429-2.897z" fill="#2C70C1"/></g><defs><clipPath id="lclip0"><path fill="#fff" d="M0 0h48v48H0z"/></clipPath></defs></symbol><symbol fill="none" viewBox="0 0 48 48" id="graph" xmlns="http://www.w3.org/2000/svg"><g clip-path="url(#mclip0)"><path d="M46.967 25.747C50.602 12.625 44.314 0 33.295 0c-6.097 0-8.7 3.504-15.397 11.663C11.2 19.822 1.65 8.478 0 25.747 1.386 41.66 18.652 56.064 26.668 42.774c7.298-12.1 16.665-3.906 20.3-17.027h-.001z" fill="#FFDD76"/><path d="M32.754 12a.564.564 0 00-.572.576c0 .326.248.576.572.576h.533l-6.422 6.49-5.698-5.741a.548.548 0 00-.8 0l-6.289 6.259a.56.56 0 000 .806.546.546 0 00.8 0l5.889-5.856 5.698 5.741c.229.23.59.23.8 0l6.842-6.893v.538c0 .326.247.576.571.576.324 0 .572-.25.572-.576v-1.92a.579.579 0 00-.362-.538.677.677 0 00-.21-.038h-1.924zm-1.696 9.408a.564.564 0 00-.572.576v13.44c0 .326.248.576.572.576h3.43c.324 0 .571-.25.571-.576v-13.44a.564.564 0 00-.571-.576h-3.43zm-18.504.5a.552.552 0 00-.553.594v.077c0 .307.267.557.59.557a.554.554 0 00.553-.595v-.077c0-.326-.266-.557-.59-.557v.001zm6.307 1.42a.562.562 0 00-.571.576v11.52c0 .326.247.576.571.576h3.43c.324 0 .572-.25.572-.576v-11.52a.564.564 0 00-.571-.576h-3.431zm.572 1.152h2.287v10.368h-2.287V24.48zm5.526 2.688a.562.562 0 00-.571.576v7.68c0 .326.247.576.571.576h3.43c.325 0 .572-.25.572-.576v-7.68a.564.564 0 00-.571-.576h-3.431zm.572 1.152h2.287v6.528h-2.287V28.32zm-12.768.768a.562.562 0 00-.571.576v5.76c0 .326.247.576.571.576h3.43c.324 0 .572-.25.572-.576v-5.76a.563.563 0 00-.572-.576h-3.43zm.572 1.152h2.287v4.608h-2.287V30.24z" fill="#63522B"/></g><defs><clipPath id="mclip0"><path fill="#fff" d="M0 0h48v48H0z"/></clipPath></defs></symbol><symbol fill="none" viewBox="0 0 48 48" id="great" xmlns="http://www.w3.org/2000/svg"><g clip-path="url(#nclip0)"><path d="M46.967 25.82C50.602 12.7 44.314.075 33.295.075c-6.097 0-14.795 1-18.397 9.663C11.427 18.084.5 10.574 0 27.82c0 14.253 20.876 27.916 26.668 15.027 5.792-12.889 16.665-3.906 20.3-17.027h-.001z" fill="#E8F3FE"/><path fill-rule="evenodd" clip-rule="evenodd" d="M33 24a9 9 0 11-18 0 9 9 0 0118 0zm2 0c0 6.075-4.925 11-11 11s-11-4.925-11-11 4.925-11 11-11 11 4.925 11 11zm-12.5 5L18 24.5l1.5-1.5 3 3 6-6 1.5 1.5-7.5 7.5z" fill="#2C70C1"/></g><defs><clipPath id="nclip0"><path fill="#fff" d="M0 0h48v48H0z"/></clipPath></defs></symbol><symbol fill="none" viewBox="0 0 48 48" id="hands" xmlns="http://www.w3.org/2000/svg"><g clip-path="url(#oclip0)"><path d="M1.033 22.253C-2.602 35.375 3.686 48 14.705 48c6.097 0 14.795-1 18.397-9.663C36.573 29.99 47.5 37.5 48 20.253 48 6 27.124-7.664 21.332 5.226 15.54 18.116 4.667 9.13 1.032 22.253h.001z" fill="#E8F3FE"/><path d="M25.557 21.724c.052.007.106.01.162.01.378 0 .79-.17 1.227-.597.373-.364.828-1.265.626-2.53-.17-1.05-.975-3.234-4.767-5.048.021.396-.092.768-.246 1.106-.166.363-.401.734-.629 1.092l-.017.027c-.706 1.11-1.474 2.34-1.171 4.114l4.815 1.826zm0 0c.363-2.454-.005-4.252-.705-6.081a.908.908 0 00-1.192-.528l-.007.003a.938.938 0 00-.5 1.2c.651 1.706.952 3.263.53 5.57l1.874-.164zm0 0l-1.875.164 1.875-.164zm-1.875.164a2.39 2.39 0 01-.638.112c-.636 0-1.146-.205-1.524-.55-.382-.35-.662-.871-.778-1.551l2.94 1.989zM13.957 27l.4-.3-.012-.015-.013-.015-.079-.09c-.23-.26-.39-.441-.515-.701-.134-.278-.238-.68-.238-1.38v-6c0-.382.124-.62.274-.762.155-.147.384-.237.66-.237.278 0 .506.09.661.237.15.143.275.38.275.763v4.17a1.429 1.429 0 00-.29.27c-.207.261-.35.567-.417.894-.157.732.016 1.647.833 2.51l2.095 2.34.003.005a.87.87 0 001.294-.002.959.959 0 000-1.278l-.002-.002-2.29-2.544-.003-.003a.75.75 0 01.008-1h.002a.547.547 0 01.278-.155c.097-.018.321-.023.664.333l2.287 2.55.005.005.005.006c.962 1.012 1.745 2.24 1.745 3.9v4h-3.783v-3.163l-.097-.132c-.962-1.3-1.928-2.599-2.896-3.894l-.33-.443-.091-.123-.024-.032-.006-.008-.002-.002-.401.298zm17.451-2.14l-.002.003-2.292 2.544-.002.002a.959.959 0 000 1.277.867.867 0 001.294.003l.003-.004 2.095-2.34c.817-.864.99-1.78.834-2.511a2.114 2.114 0 00-.417-.893 1.428 1.428 0 00-.29-.272v-4.17c0-.382.124-.62.274-.762.155-.147.383-.237.66-.237s.506.09.66.237c.15.143.275.38.275.763v6c0 .7-.104 1.1-.238 1.379-.125.26-.286.442-.515.702l-.079.089-.013.015-.012.016.4.3-.4-.3v0l-.002.003-.007.008-.024.032-.091.123-.33.443c-.966 1.297-1.931 2.595-2.896 3.894l-.097.132V34.5h-3.783v-4c0-1.661.783-2.89 1.745-3.901l.005-.006.005-.005 2.287-2.55c.343-.357.567-.35.664-.333.14.025.25.12.282.156a.754.754 0 01.007 1v-.001z" fill="#2C70C1" stroke="#2C70C1"/></g><defs><clipPath id="oclip0"><path fill="#fff" d="M0 0h48v48H0z"/></clipPath></defs></symbol><symbol fill="none" viewBox="0 0 48 48" id="leaders" xmlns="http://www.w3.org/2000/svg"><g clip-path="url(#pclip0)"><path d="M33.295 48c11.019 0 17.307-12.625 13.672-25.747-3.634-13.122-13.001-4.927-20.3-17.027C18.654-8.064 1.387 6.339 0 22.253.53 30.835 7.93 48 33.295 48z" fill="#E8F3FE"/><path d="M20.374 12.9l-.878 1.13-.002.004a.914.914 0 01-.418.3l-1.336.479 2.634-1.913zm0 0a1.844 1.844 0 011.984-.627h.002l1.356.39c.17.054.363.054.532 0l1.357-.39h.001c.736-.217 1.53.04 1.984.627l.878 1.13.003.004c.104.13.243.242.417.3l1.336.479a1.847 1.847 0 011.231 1.67l.044 1.41a.8.8 0 00.17.505l.808 1.169.002.002c.434.605.434 1.45 0 2.055l-.002.003-.812 1.174-.001.002a.893.893 0 00-.165.497l-.044 1.41a1.847 1.847 0 01-1.23 1.67L20.374 12.9zm0 0l9.851 13.48-9.851-13.48zm-3.864 3.58v.002l-.044 1.41a.894.894 0 01-.165.498l-.001.002-.81 1.17a1.942 1.942 0 00.021 2.087l.807 1.166a.8.8 0 01.17.505l.044 1.41v.002a1.85 1.85 0 001.23 1.67l.7.238.19.063-.07.189-2.523 6.826a.446.446 0 00.122.482c.14.123.342.154.514.078a2.643 2.643 0 013.505 1.27c.075.161.24.256.415.256h.013c.199-.02.36-.132.417-.302l.001-.005 2.524-6.87.026-.073.07-.035.044-.021.012-.007.013-.005a.879.879 0 01.536 0l1.357.39c.737.217 1.53-.04 1.985-.628l.79-1.021.217-.28.121.332 2.019 5.5.103.28-.298-.017a3.635 3.635 0 00-2.75.99l-.214.206-.104-.28-1.14-3.064c-.097-.254-.36-.366-.58-.28-.247.1-.369.366-.285.572l.002.006 1.558 4.261c.058.16.227.288.418.307h.013a.467.467 0 00.417-.26 2.643 2.643 0 013.504-1.266L16.51 16.48zm-.001 0l14.894 17.754L16.509 16.48zm0 0a1.847 1.847 0 011.23-1.67l-1.23 1.67zm14.894 17.754a.482.482 0 00.513-.078.446.446 0 00.122-.48l-2.502-6.85-.068-.186.188-.066.57-.195 1.177 7.855zm0 0l-1.178-7.855 1.178 7.855zm-11.711-6.857l-.215-.273-.121.326-2.018 5.435-.098.264h.544c.419 0 .834.063 1.226.205.487.19.921.438 1.27.782l.215.214.105-.285 1.777-4.827.097-.262h-.28c-.064 0-.127.006-.18.01h-.004c-.048.006-.097.01-.145.01a1.892 1.892 0 01-1.47-.707l-.703-.891zm8.446-6.77c0-2.262-1.866-4.11-4.145-4.11-2.278 0-4.144 1.848-4.144 4.11 0 2.262 1.866 4.108 4.144 4.108 2.279 0 4.145-1.846 4.145-4.11v.002zM23.53 19.52c0-.26.196-.456.463-.456s.463.197.463.456v2.175c0 .26-.196.456-.463.456a.448.448 0 01-.463-.456V19.52z" fill="#2C70C1" stroke="#2C70C1" stroke-width=".391"/></g><defs><clipPath id="pclip0"><path fill="#fff" d="M0 0h48v48H0z"/></clipPath></defs></symbol><symbol fill="none" viewBox="0 0 48 48" id="peoples" xmlns="http://www.w3.org/2000/svg"><g clip-path="url(#qclip0)"><path d="M48 27.575C48 16.32 46.403 0 26.452 0 6.501 0 17.257 19.311 5.129 26.765-8.19 34.95 6.909 48 22.195 48 33.97 48 48 42.173 48 27.575z" fill="#E2F9C3"/><path d="M20.143 15c-.929 0-1.734.38-2.248.958-.515.578-.752 1.316-.752 2.042 0 .726.237 1.464.752 2.042.514.579 1.32.958 2.248.958.928 0 1.734-.38 2.248-.958A3.058 3.058 0 0023.143 18c0-.726-.238-1.464-.752-2.042-.514-.579-1.32-.958-2.248-.958zm7.714 0c-.928 0-1.734.38-2.248.958A3.058 3.058 0 0024.857 18c0 .726.238 1.464.752 2.042.514.579 1.32.958 2.248.958.929 0 1.734-.38 2.249-.958.514-.578.751-1.316.751-2.042 0-.726-.237-1.464-.751-2.042-.515-.579-1.32-.958-2.249-.958zm-7.714 1.714c.5 0 .766.157.966.382.2.225.32.559.32.904s-.12.679-.32.904c-.2.225-.466.382-.966.382-.5 0-.766-.157-.966-.382-.2-.225-.32-.559-.32-.904s.12-.679.32-.904c.2-.225.466-.382.966-.382zm7.714 0c.5 0 .766.157.966.382.2.225.32.559.32.904s-.12.679-.32.904c-.2.225-.466.382-.966.382-.5 0-.766-.157-.966-.382-.2-.225-.32-.559-.32-.904s.12-.679.32-.904c.2-.225.466-.382.966-.382zM16.286 21c-.786 0-1.484.326-1.927.824a2.614 2.614 0 00-.645 1.747c0 .513.235 1.002.534 1.448-1.316.734-2.248 2.09-2.248 3.695h1.714a2.559 2.559 0 012.572-2.571 2.55 2.55 0 012.551 2.375A6.796 6.796 0 0017.143 33h1.714A5.13 5.13 0 0124 27.857 5.13 5.13 0 0129.143 33h1.714c0-1.716-.645-3.28-1.694-4.482a2.55 2.55 0 012.551-2.375 2.56 2.56 0 012.572 2.571H36c0-1.575-.871-2.943-2.146-3.688.29-.442.432-.95.432-1.455a2.61 2.61 0 00-.645-1.747C33.198 21.326 32.5 21 31.714 21s-1.484.326-1.927.824a2.614 2.614 0 00-.644 1.747c0 .505.142 1.013.432 1.455a4.297 4.297 0 00-1.873 2.232 6.863 6.863 0 00-1.079-.583 3.51 3.51 0 00.806-2.246c0-.834-.274-1.679-.86-2.337C25.985 21.432 25.072 21 24 21c-1.072 0-1.984.433-2.57 1.092-.585.658-.859 1.503-.859 2.337 0 .799.269 1.6.806 2.246a6.909 6.909 0 00-1.085.586 4.392 4.392 0 00-1.969-2.241c.3-.447.534-.936.534-1.449 0-.619-.202-1.25-.644-1.747-.443-.498-1.142-.824-1.927-.824zm0 1.714c.357 0 .516.103.644.248a.937.937 0 01.213.61.934.934 0 01-.213.609c-.128.145-.287.248-.644.248-.357 0-.516-.103-.645-.248a.936.936 0 01-.212-.61.94.94 0 01.212-.609c.128-.145.288-.248.645-.248zm7.714 0c.643 0 1.016.21 1.287.516.271.306.427.746.427 1.199 0 .453-.155.893-.427 1.198-.272.305-.644.516-1.287.516-.643 0-1.016-.21-1.287-.516-.271-.306-.427-.746-.427-1.198 0-.452.155-.894.427-1.2.272-.306.644-.515 1.287-.515zm7.714 0c.357 0 .516.103.645.248a.936.936 0 01.212.61.94.94 0 01-.212.609c-.128.145-.288.248-.645.248-.357 0-.516-.103-.644-.248a.937.937 0 01-.213-.61c0-.239.084-.464.213-.609.128-.145.287-.248.644-.248z" fill="#3A8241"/></g><defs><clipPath id="qclip0"><path fill="#fff" d="M0 0h48v48H0z"/></clipPath></defs></symbol><symbol fill="none" viewBox="0 0 48 48" id="removal" xmlns="http://www.w3.org/2000/svg"><g clip-path="url(#rclip0)"><path d="M1.033 25.747C-2.602 12.625 3.686 0 14.705 0c6.097 0 8.7 3.504 15.397 11.663C36.8 19.822 46.35 8.478 48 25.747 46.614 41.66 29.348 56.064 21.332 42.774c-7.298-12.1-16.665-3.906-20.3-17.027h.001z" fill="#E6F1F9"/><path d="M20.727 12l-1.09 2H12v2h2l1 18c.156 1.2 1.176 2 2.518 2h12.936c1.343 0 2.39-.8 2.546-2l1-18h2v-2h-7.636l-1.091-2h-6.546zM16 16h16l-1 18H17l-1-18zm4 3l.727 9.5c0 .662.598 1.5 1.334 1.5H23V19h-3zm5 0v11h1.182c.736 0 1.09-.838 1.09-1.5L28 19h-3z" fill="#036FC7"/></g><defs><clipPath id="rclip0"><path fill="#fff" d="M0 0h48v48H0z"/></clipPath></defs></symbol><symbol fill="none" viewBox="0 0 48 48" id="round" xmlns="http://www.w3.org/2000/svg"><g clip-path="url(#sclip0)"><path d="M33.295 48c11.019 0 17.307-12.625 13.672-25.747-3.634-13.122-13.001-4.927-20.3-17.027C18.654-8.064 1.387 6.339 0 22.253.53 30.835 7.93 48 33.295 48z" fill="#FFDD76"/><path d="M24 12c-1.17 0-2.216.78-2.916 2.01l-2.656 4.65 1.617.96L22.67 15c.473-.833.95-1.08 1.328-1.08.38 0 .856.247 1.328 1.08l2.887 5.07-1.472.93 4.619 2.88v-5.76l-1.56.96-2.886-5.07C26.215 12.78 25.17 12 24 12zm-5.601 8.61l-4.619 2.88 1.415.87-2.57 4.53c-.696 1.226-.851 2.584-.26 3.63.592 1.046 1.79 1.56 3.176 1.56h5.687v-1.92h-5.687c-.956 0-1.41-.315-1.588-.63-.176-.315-.212-.847.26-1.68l2.54-4.5 1.646 1.02v-5.76zm14.723 4.41l-1.56.99 2.224 3.84c.476.836.436 1.365.26 1.68-.177.315-.632.63-1.588.63h-4.763v-1.92l-4.62 2.88 4.62 2.88v-1.92h4.763c1.386 0 2.584-.514 3.175-1.56.592-1.046.44-2.4-.26-3.63v-.03l-2.251-3.84z" fill="#63522B"/></g><defs><clipPath id="sclip0"><path fill="#fff" d="M0 0h48v48H0z"/></clipPath></defs></symbol><symbol fill="none" viewBox="0 0 48 48" id="round-1" xmlns="http://www.w3.org/2000/svg"><g clip-path="url(#tclip0)"><path d="M1.033 32.952C-2.602 20.138 3.686 0 14.705 0c6.097 0 12.7 2.446 19.397 10.413C40.8 18.381 48 14.646 48 30.023c0 16.85-19.5 24.175-26.668 11.748-6.935-12.023-16.665 3.995-20.3-8.819h.001z" fill="#E2F9C3"/><mask id="ta" maskUnits="userSpaceOnUse" x="12" y="12" width="24" height="24"><path d="M24 12c-1.17 0-2.216.78-2.916 2.01l-2.656 4.65 1.617.96L22.67 15c.473-.833.95-1.08 1.328-1.08.38 0 .856.247 1.328 1.08l2.887 5.07-1.472.93 4.619 2.88v-5.76l-1.56.96-2.886-5.07C26.215 12.78 25.17 12 24 12zm-5.601 8.61l-4.619 2.88 1.415.87-2.57 4.53c-.696 1.226-.851 2.584-.26 3.63.592 1.046 1.79 1.56 3.176 1.56h5.687v-1.92h-5.687c-.956 0-1.41-.315-1.588-.63-.176-.315-.212-.847.26-1.68l2.54-4.5 1.646 1.02v-5.76zm14.723 4.41l-1.56.99 2.224 3.84c.476.836.436 1.365.26 1.68-.177.315-.632.63-1.588.63h-4.763v-1.92l-4.62 2.88 4.62 2.88v-1.92h4.763c1.386 0 2.584-.514 3.175-1.56.592-1.046.44-2.4-.26-3.63v-.03l-2.251-3.84z" fill="#fff"/></mask><g mask="url(#ta)"><path d="M24 12c-1.17 0-2.216.78-2.916 2.01l-2.656 4.65 1.617.96L22.67 15c.473-.833.95-1.08 1.328-1.08.38 0 .856.247 1.328 1.08l2.887 5.07-1.472.93 4.619 2.88v-5.76l-1.56.96-2.886-5.07C26.215 12.78 25.17 12 24 12zm-5.601 8.61l-4.619 2.88 1.415.87-2.57 4.53c-.696 1.226-.851 2.584-.26 3.63.592 1.046 1.79 1.56 3.176 1.56h5.687v-1.92h-5.687c-.956 0-1.41-.315-1.588-.63-.176-.315-.212-.847.26-1.68l2.54-4.5 1.646 1.02v-5.76zm14.723 4.41l-1.56.99 2.224 3.84c.476.836.436 1.365.26 1.68-.177.315-.632.63-1.588.63h-4.763v-1.92l-4.62 2.88 4.62 2.88v-1.92h4.763c1.386 0 2.584-.514 3.175-1.56.592-1.046.44-2.4-.26-3.63v-.03l-2.251-3.84z" fill="#3A8241" stroke="#3A8241" stroke-width="3.846"/></g></g><defs><clipPath id="tclip0"><path fill="#fff" d="M0 0h48v48H0z"/></clipPath></defs></symbol><symbol fill="none" viewBox="0 0 48 48" id="safe" xmlns="http://www.w3.org/2000/svg"><g clip-path="url(#uclip0)"><path d="M1.033 25.747C-2.602 12.625 3.686 0 14.705 0c6.097 0 8.7 3.504 15.397 11.663C36.8 19.822 46.35 8.478 48 25.747 46.614 41.66 29.348 56.064 21.332 42.774c-7.298-12.1-16.665-3.906-20.3-17.027h.001z" fill="#FFDD76"/><path d="M12.72 33h22.56c.408 0 .72-.32.72-.739v-3.176a.759.759 0 00-.528-.714l-.672-.197c-.12-.025-.192-.148-.192-.271v-3.256c0-4.088-2.28-7.855-5.832-9.677v-.222c0-.96-.768-1.748-1.704-1.748h-6.144c-.936 0-1.704.788-1.704 1.748v.222c-3.552 1.847-5.832 5.59-5.832 9.677v3.256a.285.285 0 01-.192.27l-.672.198a.736.736 0 00-.528.714v3.176c0 .419.336.739.72.739zm.72-3.349l.144-.05a1.781 1.781 0 001.248-1.673v-3.256c0-3.275 1.704-6.304 4.392-7.978v3.373c0 .419.312.739.72.739s.72-.32.72-.739v-5.295c0-.147.12-.27.264-.27h6.144a.27.27 0 01.264.27v.69c0 .05 0 .197.024.345v4.26c0 .419.312.739.72.739s.72-.32.72-.739v-1.453c2.4 1.354 2.928 2.783 2.928 6.033v3.256c0 .222.048.419.12.616H19.944c-.408 0-.72.32-.72.738s.312.739.72.739H33.12v1.527H13.44v-1.872z" fill="#63522B"/></g><defs><clipPath id="uclip0"><path fill="#fff" d="M0 0h48v48H0z"/></clipPath></defs></symbol><symbol fill="none" viewBox="0 0 48 48" id="study" xmlns="http://www.w3.org/2000/svg"><g clip-path="url(#vclip0)"><path d="M46.967 22.253C50.602 35.375 44.314 48 33.295 48c-6.097 0-8.7-3.504-15.397-11.663C11.2 28.177 1.65 39.522 0 22.253 1.386 6.34 18.652-8.064 26.668 5.226c7.298 12.1 16.665 3.905 20.3 17.027h-.001z" fill="#FFDD76"/><path d="M23.493 15.515h.001a.3.3 0 01.183 0l10.636 3.388.037.012.039.006a.32.32 0 01.195.111.38.38 0 01.087.236v.014l.001.015v9.08l.243.146c.347.21.585.596.585 1.048 0 .127-.065.38-.219.74-.145.343-.342.724-.545 1.085-.135.242-.27.471-.391.67a26.93 26.93 0 01-.392-.669 11.84 11.84 0 01-.545-1.086c-.153-.36-.218-.613-.218-.74 0-.452.238-.839.585-1.048l.242-.146v-8.615l-.652.207-9.687 3.087a.303.303 0 01-.184 0l-10.759-3.428a.33.33 0 01-.166-.124.379.379 0 010-.437.33.33 0 01.166-.124l10.758-3.428zm-6.029 12.73V23.98l5.238 1.67a2.894 2.894 0 001.767 0l5.238-1.67v4.266l-.125.012c-.382.043-.923.127-1.57.295-1.216.314-2.81.925-4.426 2.107a13.052 13.052 0 00-4.427-2.107 11.282 11.282 0 00-1.695-.307z" fill="#63522B" stroke="#63522B"/></g><defs><clipPath id="vclip0"><path fill="#fff" d="M0 0h48v48H0z"/></clipPath></defs></symbol><symbol fill="none" viewBox="0 0 48 48" id="tractor" xmlns="http://www.w3.org/2000/svg"><g clip-path="url(#wclip0)"><path d="M33.295 48c11.019 0 17.307-12.625 13.672-25.747-3.634-13.122-13.001-4.927-20.3-17.027C18.654-8.064 1.387 6.339 0 22.253.53 30.835 7.93 48 33.295 48z" fill="#E6F1F9"/><path d="M14.015 14v13.203C12.918 27.836 12 29.03 12 30.363 12 32.362 13.664 34 15.692 34H26.77c2.028 0 3.692-1.639 3.692-3.636a3.54 3.54 0 00-.517-1.819L32.5 28.5v1.864C32.5 32.36 33.972 34 36 34v-1.5c-1.03 0-2-1.121-2-2.136V23h-1.5v3.756l-3.445-.029 1.406-3.467v-1.987H26.77v-2.727c0-.514.402-.91.923-.91v-1.818c-1.518 0-2.769 1.232-2.769 2.728v2.727h-1.206L20.947 14h-6.932zm1.677 1.818h3.976l2.077 5.455h-6.053v-5.455zm0 7.273h12.85L27 26.727H15.692v-3.636zm0 5.455H26.77c1.031 0 1.846.803 1.846 1.818 0 1.015-.815 1.818-1.846 1.818H15.692c-1.03 0-1.846-.803-1.846-1.818 0-1.015.816-1.818 1.846-1.818zm0 .909a.924.924 0 00-.652.266.904.904 0 000 1.286.93.93 0 001.504-.294.901.901 0 00-.199-.992.93.93 0 00-.653-.266zm3.693 0a.928.928 0 00-.653.266.901.901 0 000 1.286.93.93 0 001.504-.294.901.901 0 00-.199-.992.93.93 0 00-.652-.266zm3.692 0a.928.928 0 00-.653.266.901.901 0 000 1.286.93.93 0 001.505-.294.901.901 0 00-.199-.992.93.93 0 00-.653-.266zm3.692 0a.928.928 0 00-.653.266.901.901 0 000 1.286.93.93 0 001.505-.294.901.901 0 00-.199-.992.93.93 0 00-.653-.266z" fill="#036FC7"/></g><defs><clipPath id="wclip0"><path fill="#fff" d="M0 0h48v48H0z"/></clipPath></defs></symbol></svg>